<?xml version="1.0" encoding="utf-8"?>
<!-- Generator: Adobe Illustrator 16.0.0, SVG Export Plug-In . SVG Version: 6.00 Build 0)  -->
<!DOCTYPE svg PUBLIC "-//W3C//DTD SVG 1.1//EN" "http://www.w3.org/Graphics/SVG/1.1/DTD/svg11.dtd">
<svg version="1.1" xmlns="http://www.w3.org/2000/svg" xmlns:xlink="http://www.w3.org/1999/xlink" x="0px" y="0px" width="750px"
	 height="125px" viewBox="0 0 750 125" style="enable-background:new 0 0 750 125;" xml:space="preserve">
<g id="Layer_3">
	
		<image style="overflow:visible;" width="1203" height="594" xlink:href="../../../../WebDev/rpmetaClone/rpmeta.com/res/BoTWTest.jpg"  transform="matrix(0.2104 0 0 0.2104 0 -0.0459)">
	</image>
</g>
<g id="Layer_1">
	<linearGradient id="SVGID_1_" gradientUnits="userSpaceOnUse" x1="0" y1="62.5" x2="750" y2="62.5">
		<stop  offset="0" style="stop-color:#FFFFFF;stop-opacity:0"/>
		<stop  offset="0.0778" style="stop-color:#FFFEFC;stop-opacity:0.2357"/>
		<stop  offset="0.1246" style="stop-color:#FFFAF4;stop-opacity:0.3775"/>
		<stop  offset="0.1632" style="stop-color:#FFF3E6;stop-opacity:0.4944"/>
		<stop  offset="0.1973" style="stop-color:#FFE9D1;stop-opacity:0.5979"/>
		<stop  offset="0.2285" style="stop-color:#FFDDB7;stop-opacity:0.6924"/>
		<stop  offset="0.2575" style="stop-color:#FFCD97;stop-opacity:0.7805"/>
		<stop  offset="0.285" style="stop-color:#FFBB70;stop-opacity:0.8635"/>
		<stop  offset="0.3104" style="stop-color:#FFA645;stop-opacity:0.9405"/>
		<stop  offset="0.33" style="stop-color:#FF931E"/>
	</linearGradient>
	<rect style="fill:url(#SVGID_1_);" width="750" height="125"/>
</g>
<g id="Layer_2">
	<g>
		<path d="M450.123,32.611c3.33-0.72,7.83-1.17,12.329-1.17c7.021,0,12.51,0.99,16.47,4.68c3.6,3.15,5.22,8.189,5.22,13.319
			c0,6.57-1.979,11.16-5.13,14.579c-3.779,3.96-9.899,5.76-14.759,5.76c-0.811,0-1.62,0-2.34,0v22.59h-11.79V32.611z M461.913,60.15
			c0.539,0.18,1.17,0.18,1.89,0.18c5.939,0,8.64-4.23,8.64-9.9c0-5.31-2.16-9.449-7.649-9.449c-1.08,0-2.16,0.18-2.88,0.45V60.15z"
			/>
		<path d="M491.252,32.611c3.689-0.72,8.37-1.17,12.869-1.17c6.48,0,12.24,0.9,16.2,4.5c3.689,3.33,4.77,7.38,4.77,12.6
			c0,6.479-3.15,12.33-9.359,15.209v0.18c4.14,1.62,6.209,5.49,7.379,11.97c1.17,6.749,2.79,14.22,3.87,16.47h-12.329
			c-0.721-1.711-2.07-7.83-2.97-14.49c-1.08-7.56-2.971-9.719-6.93-9.719h-1.71v24.209h-11.79V32.611z M503.042,59.07h2.069
			c5.13,0,8.1-4.14,8.1-9.449c0-5.13-2.069-8.82-7.38-9c-0.989,0-2.159,0.09-2.789,0.36V59.07z"/>
		<path d="M569.369,60.96c0,22.858-8.1,32.129-19.619,32.129c-13.77,0-19.169-14.579-19.169-31.229
			c0-16.559,6.569-30.869,19.979-30.869C565.229,30.991,569.369,47.101,569.369,60.96z M542.82,62.04
			c0,13.77,2.61,20.789,7.38,20.789c4.95,0,6.84-8.999,6.84-21.329c0-10.62-1.62-20.249-6.93-20.249
			C545.431,41.251,542.82,48.99,542.82,62.04z"/>
		<path d="M576.839,32.611c2.97-0.72,7.29-1.17,11.97-1.17c7.649,0,12.959,1.8,16.829,5.4c5.22,4.68,7.92,12.689,7.92,24.479
			c0,12.24-3.15,20.969-8.46,25.649c-4.05,3.96-10.079,5.85-18.539,5.85c-3.689,0-7.38-0.359-9.72-0.63V32.611z M588.629,83.009
			c0.539,0.181,1.439,0.181,2.069,0.181c5.67,0,10.62-5.58,10.62-22.319c0-12.42-3.24-19.979-10.35-19.979
			c-0.811,0-1.62,0-2.34,0.27V83.009z"/>
		<path d="M632.459,31.711v39.418c0,8.91,2.7,11.61,5.76,11.61c3.42,0,5.85-2.431,5.85-11.61V31.711h11.79V69.06
			c0,15.569-5.851,24.029-17.55,24.029c-12.689,0-17.64-8.729-17.64-23.939V31.711H632.459z"/>
		<path d="M695.099,91.469c-1.71,0.811-5.04,1.439-9.18,1.439c-15.479,0-22.859-12.779-22.859-29.968
			c0-22.859,12.689-31.769,24.479-31.769c4.141,0,7.021,0.81,8.19,1.62l-1.98,9.899c-1.35-0.63-2.88-1.17-5.489-1.17
			c-6.66,0-12.689,5.76-12.689,20.79c0,14.489,5.489,20.159,12.689,20.159c1.979,0,4.229-0.449,5.669-0.899L695.099,91.469z"/>
		<path d="M710.307,42.601h-10.709v-10.89h33.299v10.89h-10.8v49.769h-11.79V42.601z"/>
	</g>
</g>
</svg>
